<svg width="79" height="123" viewBox="0 0 79 123" fill="none" xmlns="http://www.w3.org/2000/svg">
<path d="M14.9091 61.4545L23.4091 76.1591H23.7727L32.3636 61.4545H44.9545L30.9091 84.7273L45.4091 108H32.5L23.7727 93.1364H23.4091L14.6818 108H1.86364L16.2955 84.7273L2.22727 61.4545H14.9091Z" fill="white"/>
<path d="M57.7386 55.8182C56.7386 55.8182 55.7955 55.7386 54.9091 55.5795C54.0227 55.4318 53.2614 55.233 52.625 54.983L54.4659 48.9318C55.2841 49.2045 56.0227 49.3636 56.6818 49.4091C57.3523 49.4545 57.9261 49.3466 58.4034 49.0852C58.892 48.8352 59.267 48.3864 59.5284 47.7386L59.8523 46.9545L50.5455 19.8182H59.2727L64.0966 38.5H64.3693L69.2614 19.8182H78.0398L68.1705 48.5057C67.6932 49.9375 67.017 51.1989 66.142 52.2898C65.2784 53.392 64.1591 54.2557 62.7841 54.8807C61.4205 55.5057 59.7386 55.8182 57.7386 55.8182Z" fill="white"/>
</svg>
